<svg xmlns="http://www.w3.org/2000/svg" viewBox="0 0 141.56 23.86"><g id="Layer_2" data-name="Layer 2"><g id="Layer_1-2" data-name="Layer 1"><rect y="1.93" height="20"/><rect y="1.93" width="133" height="20"/><path d="M25,12A12,12,0,1,0,11.16,23.85V15.47H8.11V12h3.05V9.36c0-3,1.79-4.67,4.53-4.67a18.94,18.94,0,0,1,2.69.23v3H16.86a1.73,1.73,0,0,0-1.95,1.87V12h3.32l-.53,3.47H14.91v8.39A12,12,0,0,0,25,12Z" style="fill:#1877f2"/><path d="M34.14,12.81l-.57,2.07H31.68L34.14,6.8h2.4l2.51,8.08h-2l-.62-2.07Zm2-1.37-.5-1.71c-.14-.48-.29-1.09-.41-1.56h0c-.12.47-.25,1.09-.37,1.56l-.49,1.71Z" style="fill:#1877f2"/><path d="M48.1,9c0,.38-.05.88-.05,1.75V14a3.39,3.39,0,0,1-.89,2.64,3.62,3.62,0,0,1-2.38.72,4.64,4.64,0,0,1-2.11-.45L43,15.55a3.52,3.52,0,0,0,1.7.44,1.39,1.39,0,0,0,1.52-1.54v-.38h0a1.9,1.9,0,0,1-1.59.76A2.59,2.59,0,0,1,42.16,12a2.81,2.81,0,0,1,2.66-3.09,1.77,1.77,0,0,1,1.61.83h0l.06-.7ZM46.22,11.4a1.76,1.76,0,0,0,0-.33,1,1,0,0,0-1-.81c-.66,0-1.19.6-1.19,1.67,0,.87.43,1.56,1.19,1.56a1,1,0,0,0,1-.74,1.91,1.91,0,0,0,0-.48Z" style="fill:#1877f2"/><path d="M53.82,7.38a.91.91,0,0,1-1,.91.91.91,0,1,1,0-1.82A.9.9,0,0,1,53.82,7.38Zm-1.88,7.5V9h1.82v5.87Z" style="fill:#1877f2"/><path d="M57.65,10.89c0-.74,0-1.35,0-1.88h1.58l.09.81h0a2.12,2.12,0,0,1,1.81-.94c1.2,0,2.1.8,2.1,2.53v3.47H61.39V11.63c0-.76-.27-1.28-.92-1.28a1,1,0,0,0-.93.69,1.26,1.26,0,0,0-.06.45v3.39H57.65Z" style="fill:#1877f2"/><path d="M67.17,6.91a15.89,15.89,0,0,1,2.46-.18,5.22,5.22,0,0,1,3.31.87,3.58,3.58,0,0,1,1.37,3A4.11,4.11,0,0,1,73,13.92,5.78,5.78,0,0,1,69.25,15a15.81,15.81,0,0,1-2.08-.12ZM69,13.51a5.78,5.78,0,0,0,.63,0,2.52,2.52,0,0,0,2.75-2.84,2.32,2.32,0,0,0-2.55-2.56,4.42,4.42,0,0,0-.83.07Z" style="fill:#1877f2"/><path d="M77.88,11c0-.87,0-1.43,0-1.94H79.4l.07,1.09h0A1.72,1.72,0,0,1,81.1,8.88a1.63,1.63,0,0,1,.39,0v1.72a2.34,2.34,0,0,0-.5-.05,1.17,1.17,0,0,0-1.25.93,2.33,2.33,0,0,0,0,.4v3H77.88Z" style="fill:#1877f2"/><path d="M90.65,11.89A2.94,2.94,0,0,1,87.56,15a2.87,2.87,0,0,1-3-3,2.93,2.93,0,0,1,3.14-3.11A2.84,2.84,0,0,1,90.65,11.89ZM86.41,12c0,1,.42,1.76,1.2,1.76s1.16-.71,1.16-1.77c0-.87-.33-1.76-1.16-1.76S86.41,11.08,86.41,12Z" style="fill:#1877f2"/><path d="M94.21,11c0-.77,0-1.42,0-2h1.59l.08.82h0a2.25,2.25,0,0,1,2-.95c1.29,0,2.44,1.12,2.44,3,0,2.14-1.36,3.14-2.67,3.14a1.8,1.8,0,0,1-1.52-.67h0v2.92H94.21ZM96,12.37a2.25,2.25,0,0,0,0,.38,1.1,1.1,0,0,0,1.07.86c.79,0,1.26-.66,1.26-1.66s-.42-1.64-1.23-1.64a1.14,1.14,0,0,0-1.09.92,1.19,1.19,0,0,0,0,.33Z" style="fill:#1877f2"/><path d="M103.88,6.91a15.79,15.79,0,0,1,2.46-.18,5.24,5.24,0,0,1,3.31.87,3.58,3.58,0,0,1,1.37,3,4.11,4.11,0,0,1-1.34,3.28A5.79,5.79,0,0,1,106,15a15.63,15.63,0,0,1-2.07-.12Zm1.82,6.6a6,6,0,0,0,.64,0,2.51,2.51,0,0,0,2.74-2.84,2.32,2.32,0,0,0-2.55-2.56,4.42,4.42,0,0,0-.83.07Z" style="fill:#1877f2"/><path d="M116.46,7.38a1,1,0,1,1-1-.91A.9.9,0,0,1,116.46,7.38Zm-1.87,7.5V9h1.82v5.87Z" style="fill:#1877f2"/><path d="M120.29,13.29a3.46,3.46,0,0,0,1.57.44c.55,0,.78-.19.78-.49s-.18-.45-.86-.68c-1.22-.4-1.68-1.06-1.67-1.75,0-1.1.93-1.93,2.38-1.93a3.93,3.93,0,0,1,1.66.34l-.32,1.26a3,3,0,0,0-1.27-.33c-.45,0-.7.17-.7.47s.23.43,1,.68c1.11.38,1.58.95,1.59,1.8,0,1.1-.86,1.91-2.54,1.91a4.21,4.21,0,0,1-1.9-.42Z" style="fill:#1877f2"/><path d="M132.33,14.73a4.08,4.08,0,0,1-1.63.28,2.85,2.85,0,0,1-3.11-3A3.07,3.07,0,0,1,131,8.88a4,4,0,0,1,1.39.24l-.28,1.35a2.42,2.42,0,0,0-1-.19,1.53,1.53,0,0,0-1.58,1.65,1.54,1.54,0,0,0,1.61,1.65,2.82,2.82,0,0,0,1.05-.19Z" style="fill:#1877f2"/><path d="M141.56,11.89a2.94,2.94,0,0,1-3.1,3.12,2.87,2.87,0,0,1-3-3,2.93,2.93,0,0,1,3.14-3.11A2.85,2.85,0,0,1,141.56,11.89Zm-4.25.06c0,1,.43,1.76,1.2,1.76s1.16-.71,1.16-1.77c0-.87-.33-1.76-1.16-1.76S137.31,11.08,137.31,12Z" style="fill:#1877f2"/></g></g></svg>