<svg xmlns="http://www.w3.org/2000/svg" viewBox="0 0 140.82 23.86"><g id="Layer_2" data-name="Layer 2"><g id="Layer_1-2" data-name="Layer 1"><rect x="7.15" y="1.89" height="20" style="fill:#1e8ec2"/><path d="M7.15,1.89H130.77a10,10,0,0,1,10,10h0a10,10,0,0,1-10,10H7.15Z" style="fill:#1e8ec2"/><path d="M30.44,12.77l-.57,2.08H28l2.47-8.09h2.39l2.51,8.09h-2l-.63-2.08Zm2.05-1.36L32,9.69c-.14-.48-.28-1.08-.41-1.55h0c-.12.47-.24,1.08-.37,1.55l-.49,1.72Z" style="fill:#fff"/><path d="M44.4,9c0,.38,0,.87,0,1.75V14a3.37,3.37,0,0,1-.89,2.64,3.55,3.55,0,0,1-2.38.72A4.51,4.51,0,0,1,39,16.9l.36-1.38A3.64,3.64,0,0,0,41,16a1.4,1.4,0,0,0,1.52-1.55V14h0A1.89,1.89,0,0,1,41,14.8a2.59,2.59,0,0,1-2.49-2.86,2.8,2.8,0,0,1,2.66-3.09,1.77,1.77,0,0,1,1.61.83h0l.07-.7Zm-1.87,2.39a1.76,1.76,0,0,0,0-.34,1,1,0,0,0-1-.81c-.67,0-1.2.61-1.2,1.68,0,.87.44,1.55,1.19,1.55a1,1,0,0,0,1-.73,1.93,1.93,0,0,0,.06-.49Z" style="fill:#fff"/><path d="M50.12,7.35a1,1,0,1,1-1-.92A.9.9,0,0,1,50.12,7.35Zm-1.88,7.5V9h1.83v5.87Z" style="fill:#fff"/><path d="M54,10.85c0-.73,0-1.35-.05-1.87h1.59l.08.81h0a2.11,2.11,0,0,1,1.81-.94c1.2,0,2.1.8,2.1,2.52v3.48H57.7V11.59c0-.75-.27-1.27-.93-1.27a1,1,0,0,0-.93.69,1.49,1.49,0,0,0-.06.45v3.39H54Z" style="fill:#fff"/><path d="M63.47,6.87a17.51,17.51,0,0,1,2.47-.17,5.19,5.19,0,0,1,3.31.87,3.56,3.56,0,0,1,1.36,3,4.1,4.1,0,0,1-1.33,3.27,5.79,5.79,0,0,1-3.73,1,15.81,15.81,0,0,1-2.08-.12Zm1.83,6.6a4.1,4.1,0,0,0,.64,0,2.51,2.51,0,0,0,2.74-2.83,2.32,2.32,0,0,0-2.55-2.56,3.69,3.69,0,0,0-.83.07Z" style="fill:#fff"/><path d="M74.18,10.91c0-.86,0-1.43-.05-1.93H75.7l.07,1.08h0A1.72,1.72,0,0,1,77.4,8.85a1.58,1.58,0,0,1,.39,0V10.6a2.18,2.18,0,0,0-.49-.06,1.19,1.19,0,0,0-1.26.93,2.54,2.54,0,0,0,0,.41v3H74.18Z" style="fill:#fff"/><path d="M87,11.85A2.94,2.94,0,0,1,83.86,15a2.88,2.88,0,0,1-3-3A2.93,2.93,0,0,1,84,8.85,2.85,2.85,0,0,1,87,11.85Zm-4.25.06c0,1,.43,1.77,1.2,1.77s1.17-.72,1.17-1.78c0-.86-.34-1.75-1.16-1.75S82.71,11,82.71,11.91Z" style="fill:#fff"/><path d="M90.51,11c0-.77,0-1.42-.05-2h1.59l.09.82h0a2.26,2.26,0,0,1,2-1c1.28,0,2.43,1.11,2.43,3C96.55,14,95.19,15,93.88,15a1.8,1.8,0,0,1-1.52-.67h0v2.91H90.51Zm1.83,1.38a1.61,1.61,0,0,0,0,.39,1.09,1.09,0,0,0,1.06.86c.79,0,1.26-.66,1.26-1.66s-.42-1.65-1.23-1.65a1.15,1.15,0,0,0-1.09.93,1.12,1.12,0,0,0,0,.32Z" style="fill:#fff"/><path d="M100.18,6.87a17.36,17.36,0,0,1,2.46-.17,5.16,5.16,0,0,1,3.31.87,3.57,3.57,0,0,1,1.37,3A4.07,4.07,0,0,1,106,13.88a5.79,5.79,0,0,1-3.73,1,15.75,15.75,0,0,1-2.07-.12Zm1.82,6.6a4.16,4.16,0,0,0,.64,0,2.51,2.51,0,0,0,2.75-2.83,2.32,2.32,0,0,0-2.55-2.56,3.8,3.8,0,0,0-.84.07Z" style="fill:#fff"/><path d="M112.77,7.35a.91.91,0,0,1-1,.91.89.89,0,0,1-1-.91,1,1,0,0,1,1.93,0Zm-1.88,7.5V9h1.83v5.87Z" style="fill:#fff"/><path d="M116.59,13.26a3.67,3.67,0,0,0,1.57.43c.55,0,.78-.18.78-.48s-.18-.45-.86-.68c-1.22-.4-1.68-1.07-1.67-1.75,0-1.11.93-1.93,2.39-1.93a3.91,3.91,0,0,1,1.65.34l-.32,1.25a3.08,3.08,0,0,0-1.27-.33c-.44,0-.7.18-.7.48s.23.43,1,.67c1.12.38,1.58,1,1.59,1.81,0,1.1-.85,1.9-2.54,1.9a4.22,4.22,0,0,1-1.9-.41Z" style="fill:#fff"/><path d="M128.64,14.7A4.36,4.36,0,0,1,127,15a2.85,2.85,0,0,1-3.1-3,3.05,3.05,0,0,1,3.35-3.12,4.32,4.32,0,0,1,1.4.23l-.29,1.36a2.42,2.42,0,0,0-1-.19,1.54,1.54,0,0,0-1.58,1.65,1.54,1.54,0,0,0,1.61,1.65,2.58,2.58,0,0,0,1-.2Z" style="fill:#fff"/><path d="M137.86,11.85a2.94,2.94,0,0,1-3.1,3.13,2.88,2.88,0,0,1-3-3,2.93,2.93,0,0,1,3.14-3.1A2.84,2.84,0,0,1,137.86,11.85Zm-4.25.06c0,1,.43,1.77,1.21,1.77S136,13,136,11.9c0-.86-.34-1.75-1.16-1.75S133.61,11,133.61,11.91Z" style="fill:#fff"/><path d="M8.78,21.89h7.06c2.93-1.19,4.89-4.12,4.89-8.87,0-6.26-3.69-11.34-8.25-11.34S4.22,6.76,4.22,13C4.22,17.62,5.7,20.66,8.78,21.89Z" style="fill:#fff"/><path d="M24,12A12,12,0,1,0,10.12,23.85V15.47h-3V12h3V9.36c0-3,1.8-4.67,4.54-4.67a18.71,18.71,0,0,1,2.68.23v3H15.83a1.74,1.74,0,0,0-2,1.87V12H17.2l-.53,3.47h-2.8v8.39A12,12,0,0,0,24,12Z" style="fill:#1877f2"/></g></g></svg>