<svg xmlns="http://www.w3.org/2000/svg" viewBox="0 0 140.62 23.85"><g id="Layer_2" data-name="Layer 2"><g id="Layer_1-2" data-name="Layer 1"><path d="M15.89,1.93H130.48a10.07,10.07,0,0,1,10.14,10h0a10.07,10.07,0,0,1-10.14,10H15.89a10.07,10.07,0,0,1-10.14-10h0A10.07,10.07,0,0,1,15.89,1.93Z" style="fill:#1e8ec2"/><path d="M29.71,13.44l-.57,2.07H27.25l2.46-8.08H32.1l2.52,8.08h-2L32,13.44Zm2.05-1.36-.5-1.72c-.14-.48-.29-1.08-.41-1.56h0c-.11.48-.24,1.09-.37,1.56L30,12.08Z" style="fill:#fff"/><path d="M43.67,9.64c0,.38-.05.88-.05,1.75v3.27a3.34,3.34,0,0,1-.9,2.64,3.53,3.53,0,0,1-2.38.72,4.7,4.7,0,0,1-2.11-.45l.37-1.38a3.64,3.64,0,0,0,1.7.44,1.4,1.4,0,0,0,1.52-1.55v-.37h0a1.9,1.9,0,0,1-1.59.75,2.57,2.57,0,0,1-2.48-2.85,2.81,2.81,0,0,1,2.66-3.1,1.75,1.75,0,0,1,1.61.84h0l.06-.71ZM41.79,12a1.79,1.79,0,0,0,0-.34,1,1,0,0,0-1-.81c-.66,0-1.19.61-1.19,1.67,0,.88.43,1.56,1.19,1.56a1,1,0,0,0,1-.74,1.86,1.86,0,0,0,0-.48Z" style="fill:#fff"/><path d="M49.39,8a.92.92,0,0,1-1,.92.92.92,0,1,1,1-.92Zm-1.88,7.5V9.64h1.82v5.87Z" style="fill:#fff"/><path d="M53.22,11.52c0-.73,0-1.35,0-1.88h1.58l.09.82h0a2.1,2.1,0,0,1,1.81-1c1.2,0,2.1.8,2.1,2.53v3.47H57V12.26C57,11.5,56.69,11,56,11a1,1,0,0,0-.92.69,1.2,1.2,0,0,0-.06.45v3.38H53.22Z" style="fill:#fff"/><path d="M62.74,7.54a16,16,0,0,1,2.46-.17,5.16,5.16,0,0,1,3.31.87,3.56,3.56,0,0,1,1.37,3,4.07,4.07,0,0,1-1.34,3.27,5.78,5.78,0,0,1-3.72,1,15.69,15.69,0,0,1-2.08-.12Zm1.82,6.6a4.16,4.16,0,0,0,.64,0A2.52,2.52,0,0,0,68,11.34a2.33,2.33,0,0,0-2.56-2.57,4.51,4.51,0,0,0-.83.07Z" style="fill:#fff"/><path d="M73.45,11.58c0-.86,0-1.43,0-1.94H75L75,10.73h0a1.72,1.72,0,0,1,1.58-1.22,1.51,1.51,0,0,1,.39,0v1.71a2.17,2.17,0,0,0-.49,0,1.18,1.18,0,0,0-1.25.93,2.41,2.41,0,0,0,0,.4v3H73.45Z" style="fill:#fff"/><path d="M86.22,12.52a2.94,2.94,0,0,1-3.09,3.13,2.88,2.88,0,0,1-3-3,2.93,2.93,0,0,1,3.13-3.11A2.85,2.85,0,0,1,86.22,12.52ZM82,12.58c0,1,.42,1.76,1.2,1.76s1.16-.71,1.16-1.77c0-.86-.33-1.75-1.16-1.75S82,11.71,82,12.58Z" style="fill:#fff"/><path d="M89.78,11.62c0-.77,0-1.43,0-2h1.59l.08.83h0a2.26,2.26,0,0,1,1.95-1c1.29,0,2.44,1.12,2.44,3,0,2.14-1.36,3.15-2.67,3.15A1.83,1.83,0,0,1,91.63,15h0v2.91H89.78ZM91.61,13a2.17,2.17,0,0,0,0,.38,1.11,1.11,0,0,0,1.07.87c.79,0,1.26-.67,1.26-1.66s-.42-1.65-1.23-1.65a1.14,1.14,0,0,0-1.09.92,1.24,1.24,0,0,0,0,.33Z" style="fill:#fff"/><path d="M99.44,7.54a16.13,16.13,0,0,1,2.47-.17,5.19,5.19,0,0,1,3.31.87,3.56,3.56,0,0,1,1.37,3,4.07,4.07,0,0,1-1.34,3.27,5.79,5.79,0,0,1-3.73,1,15.94,15.94,0,0,1-2.08-.12Zm1.83,6.6a4.16,4.16,0,0,0,.64,0,2.51,2.51,0,0,0,2.74-2.83,2.33,2.33,0,0,0-2.55-2.57,4.42,4.42,0,0,0-.83.07Z" style="fill:#fff"/><path d="M112,8a1,1,0,1,1-1-.91A.89.89,0,0,1,112,8Zm-1.88,7.5V9.64H112v5.87Z" style="fill:#fff"/><path d="M115.86,13.92a3.45,3.45,0,0,0,1.56.44c.56,0,.79-.18.79-.48s-.19-.46-.86-.68c-1.22-.4-1.68-1.07-1.67-1.76,0-1.1.93-1.93,2.38-1.93a3.93,3.93,0,0,1,1.66.34l-.32,1.26a3,3,0,0,0-1.27-.33c-.45,0-.7.18-.7.47s.23.43.95.68c1.11.38,1.58,1,1.59,1.81,0,1.09-.86,1.9-2.54,1.9a4.18,4.18,0,0,1-1.9-.41Z" style="fill:#fff"/><path d="M127.9,15.37a4.34,4.34,0,0,1-1.63.27,2.85,2.85,0,0,1-3.11-3,3.06,3.06,0,0,1,3.36-3.12,4.05,4.05,0,0,1,1.39.23l-.28,1.35a2.62,2.62,0,0,0-1-.18A1.52,1.52,0,0,0,125,12.56a1.53,1.53,0,0,0,1.61,1.65,2.63,2.63,0,0,0,1-.19Z" style="fill:#fff"/><path d="M137.12,12.52A2.93,2.93,0,0,1,134,15.65a2.88,2.88,0,0,1-3-3,2.94,2.94,0,0,1,3.14-3.11A2.85,2.85,0,0,1,137.12,12.52Zm-4.24.06c0,1,.42,1.76,1.2,1.76s1.16-.71,1.16-1.77c0-.86-.33-1.75-1.16-1.75S132.88,11.71,132.88,12.58Z" style="fill:#fff"/><path d="M5.53,11.75a9.83,9.83,0,0,0,1.62,5.4H8.89V5H8.22A9.89,9.89,0,0,0,5.53,11.75Z" style="fill:#fff"/><path d="M18.67,16.34H15.88V12.41c0-.93,0-2.14-1.46-2.14s-1.67,1-1.67,2.08v4H10V8.27h2.68v1.1h0a3,3,0,0,1,2.65-1.3c2.83,0,3.35,1.67,3.35,3.84Z" style="fill:#fff"/><path d="M11.93,0A11.93,11.93,0,1,0,23.86,11.93,11.93,11.93,0,0,0,11.93,0ZM8.2,16.34H5.41V8.27H8.2ZM6.81,7.17A1.55,1.55,0,0,1,5.19,5.71,1.54,1.54,0,0,1,6.8,4.26h0A1.55,1.55,0,0,1,8.43,5.71,1.55,1.55,0,0,1,6.81,7.17Zm11.86,9.17H15.88V12.41c0-.93,0-2.14-1.46-2.14s-1.67,1-1.67,2.08v4H10V8.27h2.68v1.1h0a3,3,0,0,1,2.65-1.3c2.83,0,3.35,1.67,3.35,3.84Z" style="fill:#1877f2"/></g></g></svg>