<svg xmlns="http://www.w3.org/2000/svg" viewBox="0 0 141.56 24"><g id="Layer_2" data-name="Layer 2"><g id="Layer_1-2" data-name="Layer 1"><rect y="2" height="20"/><rect y="2" width="133" height="20"/><path d="M34.14,13.51l-.57,2.08H31.68L34.14,7.5h2.4l2.51,8.09h-2l-.62-2.08Zm2-1.36-.5-1.72c-.14-.48-.29-1.08-.41-1.55h0c-.12.47-.25,1.08-.37,1.55l-.49,1.72Z" style="fill:#1e8ec2"/><path d="M48.1,9.72c0,.38-.05.87-.05,1.75v3.26a3.37,3.37,0,0,1-.89,2.64,3.56,3.56,0,0,1-2.38.72,4.51,4.51,0,0,1-2.11-.45L43,16.26a3.64,3.64,0,0,0,1.7.44,1.4,1.4,0,0,0,1.52-1.55v-.37h0a1.9,1.9,0,0,1-1.59.76,2.59,2.59,0,0,1-2.48-2.86,2.8,2.8,0,0,1,2.66-3.09,1.77,1.77,0,0,1,1.61.83h0l.06-.7Zm-1.88,2.39a1.79,1.79,0,0,0,0-.34,1,1,0,0,0-1-.81c-.66,0-1.19.61-1.19,1.67,0,.88.43,1.56,1.19,1.56a1,1,0,0,0,1-.73,1.94,1.94,0,0,0,0-.49Z" style="fill:#1e8ec2"/><path d="M53.82,8.09a.91.91,0,0,1-1,.91.92.92,0,1,1,0-1.83A.91.91,0,0,1,53.82,8.09Zm-1.88,7.5V9.72h1.82v5.87Z" style="fill:#1e8ec2"/><path d="M57.65,11.59c0-.73,0-1.35,0-1.87h1.58l.09.81h0a2.1,2.1,0,0,1,1.81-.94c1.2,0,2.1.79,2.1,2.52v3.48H61.39V12.33c0-.75-.27-1.27-.92-1.27a1,1,0,0,0-.93.69,1.23,1.23,0,0,0-.06.45v3.39H57.65Z" style="fill:#1e8ec2"/><path d="M67.17,7.61a17.36,17.36,0,0,1,2.46-.17,5.16,5.16,0,0,1,3.31.87,3.56,3.56,0,0,1,1.37,3A4.07,4.07,0,0,1,73,14.62a5.78,5.78,0,0,1-3.72,1.05,15.81,15.81,0,0,1-2.08-.12ZM69,14.21a4,4,0,0,0,.63,0,2.51,2.51,0,0,0,2.75-2.83,2.32,2.32,0,0,0-2.55-2.56,3.69,3.69,0,0,0-.83.07Z" style="fill:#1e8ec2"/><path d="M77.88,11.65c0-.86,0-1.43,0-1.93H79.4l.07,1.08h0A1.71,1.71,0,0,1,81.1,9.59a1.63,1.63,0,0,1,.39,0v1.72a1.8,1.8,0,0,0-.5-.06,1.18,1.18,0,0,0-1.25.93,2.54,2.54,0,0,0,0,.41v3H77.88Z" style="fill:#1e8ec2"/><path d="M90.65,12.59a2.94,2.94,0,0,1-3.09,3.13,2.88,2.88,0,0,1-3-3,2.93,2.93,0,0,1,3.14-3.1A2.84,2.84,0,0,1,90.65,12.59Zm-4.24.06c0,1,.42,1.77,1.2,1.77s1.16-.72,1.16-1.78c0-.86-.33-1.75-1.16-1.75S86.41,11.78,86.41,12.65Z" style="fill:#1e8ec2"/><path d="M94.21,11.69c0-.77,0-1.42,0-2h1.59l.08.82h0a2.25,2.25,0,0,1,2-.95c1.29,0,2.44,1.11,2.44,3,0,2.14-1.36,3.14-2.67,3.14a1.8,1.8,0,0,1-1.52-.67h0V18H94.21ZM96,13.07a2.38,2.38,0,0,0,0,.39,1.11,1.11,0,0,0,1.07.86c.79,0,1.26-.66,1.26-1.66S98,11,97.17,11a1.14,1.14,0,0,0-1.09.93,1.12,1.12,0,0,0,0,.32Z" style="fill:#1e8ec2"/><path d="M103.88,7.61a17.25,17.25,0,0,1,2.46-.17,5.18,5.18,0,0,1,3.31.87,3.56,3.56,0,0,1,1.37,3,4.07,4.07,0,0,1-1.34,3.27A5.79,5.79,0,0,1,106,15.67a15.63,15.63,0,0,1-2.07-.12Zm1.82,6.6a4.16,4.16,0,0,0,.64,0,2.5,2.5,0,0,0,2.74-2.83,2.32,2.32,0,0,0-2.55-2.56,3.69,3.69,0,0,0-.83.07Z" style="fill:#1e8ec2"/><path d="M116.46,8.09a1,1,0,0,1-1.93,0,.91.91,0,0,1,1-.92A.89.89,0,0,1,116.46,8.09Zm-1.87,7.5V9.72h1.82v5.87Z" style="fill:#1e8ec2"/><path d="M120.29,14a3.59,3.59,0,0,0,1.57.43c.55,0,.78-.18.78-.48s-.18-.45-.86-.68c-1.22-.4-1.68-1.07-1.67-1.76,0-1.1.93-1.92,2.38-1.92a3.93,3.93,0,0,1,1.66.34l-.32,1.25a3.12,3.12,0,0,0-1.27-.33c-.45,0-.7.18-.7.48s.23.43,1,.67c1.11.38,1.58.95,1.59,1.81,0,1.1-.86,1.9-2.54,1.9a4.22,4.22,0,0,1-1.9-.41Z" style="fill:#1e8ec2"/><path d="M132.33,15.44a4.3,4.3,0,0,1-1.63.27,2.85,2.85,0,0,1-3.11-3A3.06,3.06,0,0,1,131,9.59a4.31,4.31,0,0,1,1.39.23l-.28,1.36a2.42,2.42,0,0,0-1-.19,1.53,1.53,0,0,0-1.58,1.64,1.55,1.55,0,0,0,1.61,1.66,2.62,2.62,0,0,0,1.05-.2Z" style="fill:#1e8ec2"/><path d="M141.56,12.59a2.94,2.94,0,0,1-3.1,3.13,2.88,2.88,0,0,1-3-3,2.93,2.93,0,0,1,3.14-3.1A2.85,2.85,0,0,1,141.56,12.59Zm-4.25.06c0,1,.43,1.77,1.2,1.77s1.16-.72,1.16-1.78c0-.86-.33-1.75-1.16-1.75S137.31,11.78,137.31,12.65Z" style="fill:#1e8ec2"/><path d="M21.48,20.45H17.93V14.88c0-1.33,0-3-1.86-3s-2.13,1.44-2.13,2.93v5.67H10.38V9H13.8v1.56h0a3.75,3.75,0,0,1,3.37-1.85c3.6,0,4.27,2.37,4.27,5.46v6.28ZM6.37,7.43a2.06,2.06,0,0,1,0-4.12h0a2.06,2.06,0,0,1,0,4.12Zm1.78,13H4.59V9H8.15ZM23.26,0H2.8A1.75,1.75,0,0,0,1,1.73V22.27A1.75,1.75,0,0,0,2.8,24H23.25A1.75,1.75,0,0,0,25,22.27V1.73A1.75,1.75,0,0,0,23.25,0Z" style="fill:#1e8ec2"/></g></g></svg>