<svg xmlns="http://www.w3.org/2000/svg" viewBox="0 0 140.69 20"><g id="Layer_2" data-name="Layer 2"><g id="Layer_1-2" data-name="Layer 1"><rect x="7.69" width="133" height="20" rx="10" style="fill:#1e8ec2"/><path d="M23.5,4.25a3.05,3.05,0,0,0-2.12-2.14c-1.88-.5-9.38-.5-9.38-.5s-7.51,0-9.38.5A3.05,3.05,0,0,0,.5,4.25,31.67,31.67,0,0,0,0,10.06a31.82,31.82,0,0,0,.5,5.82A3,3,0,0,0,2.62,18c1.87.51,9.38.51,9.38.51s7.51,0,9.38-.51a3,3,0,0,0,2.12-2.13,31.82,31.82,0,0,0,.5-5.82A31.67,31.67,0,0,0,23.5,4.25Z" style="fill:red"/><polygon points="9.54 13.63 9.54 6.5 15.82 10.06 9.54 13.63" style="fill:#fff"/><path d="M42.72,5.61a17.51,17.51,0,0,1,2.47-.17,5.19,5.19,0,0,1,3.31.87,3.57,3.57,0,0,1,1.37,3,4.07,4.07,0,0,1-1.34,3.27,5.79,5.79,0,0,1-3.73,1.05,15.81,15.81,0,0,1-2.08-.12Zm1.83,6.6a4.1,4.1,0,0,0,.64,0,2.51,2.51,0,0,0,2.74-2.83,2.32,2.32,0,0,0-2.55-2.56,3.69,3.69,0,0,0-.83.07Z" style="fill:#fff"/><path d="M53.43,9.65c0-.86,0-1.43,0-1.93H55L55,8.8h0a1.7,1.7,0,0,1,1.58-1.21,1.58,1.58,0,0,1,.39,0V9.34a2.18,2.18,0,0,0-.49-.06,1.18,1.18,0,0,0-1.25.93,1.73,1.73,0,0,0,0,.41v3H53.43Z" style="fill:#fff"/><path d="M66.21,10.59a2.94,2.94,0,0,1-3.1,3.13,2.88,2.88,0,0,1-3-3,2.93,2.93,0,0,1,3.14-3.1A2.84,2.84,0,0,1,66.21,10.59ZM62,10.65c0,1,.43,1.77,1.21,1.77s1.16-.72,1.16-1.78c0-.86-.34-1.75-1.16-1.75S62,9.78,62,10.65Z" style="fill:#fff"/><path d="M69.77,9.69c0-.77,0-1.42,0-2H71.3l.09.82h0a2.28,2.28,0,0,1,2-.95c1.28,0,2.44,1.11,2.44,3,0,2.13-1.37,3.14-2.67,3.14a1.82,1.82,0,0,1-1.53-.67h0V16H69.77Zm1.82,1.38a1.61,1.61,0,0,0,0,.39,1.11,1.11,0,0,0,1.06.86c.79,0,1.26-.66,1.26-1.66S73.54,9,72.72,9a1.15,1.15,0,0,0-1.09.93,1.65,1.65,0,0,0,0,.32Z" style="fill:#fff"/><path d="M79.43,5.61a17.4,17.4,0,0,1,2.47-.17,5.19,5.19,0,0,1,3.31.87,3.56,3.56,0,0,1,1.36,3,4.1,4.1,0,0,1-1.33,3.27,5.81,5.81,0,0,1-3.73,1.05,15.81,15.81,0,0,1-2.08-.12Zm1.83,6.6a4,4,0,0,0,.63,0,2.51,2.51,0,0,0,2.75-2.83,2.32,2.32,0,0,0-2.55-2.56,3.69,3.69,0,0,0-.83.07Z" style="fill:#fff"/><path d="M92,6.09a1,1,0,1,1-1-.92A.9.9,0,0,1,92,6.09Zm-1.88,7.5V7.72H92v5.87Z" style="fill:#fff"/><path d="M95.85,12a3.58,3.58,0,0,0,1.56.43c.55,0,.79-.18.79-.48s-.19-.45-.86-.68c-1.23-.4-1.68-1.07-1.68-1.75,0-1.11.93-1.93,2.39-1.93a3.88,3.88,0,0,1,1.65.34l-.31,1.25a3.18,3.18,0,0,0-1.28-.33c-.44,0-.7.18-.7.48s.24.43,1,.67c1.12.38,1.58.95,1.59,1.81,0,1.1-.85,1.9-2.53,1.9a4.15,4.15,0,0,1-1.9-.41Z" style="fill:#fff"/><path d="M107.89,13.44a4.34,4.34,0,0,1-1.63.27,2.85,2.85,0,0,1-3.11-3,3.06,3.06,0,0,1,3.36-3.12,4.31,4.31,0,0,1,1.39.23l-.29,1.36a2.38,2.38,0,0,0-1-.19A1.52,1.52,0,0,0,105,10.64a1.54,1.54,0,0,0,1.6,1.65,2.67,2.67,0,0,0,1.06-.2Z" style="fill:#fff"/><path d="M117.11,10.59A2.94,2.94,0,0,1,114,13.72a2.88,2.88,0,0,1-3-3,2.93,2.93,0,0,1,3.13-3.1A2.84,2.84,0,0,1,117.11,10.59Zm-4.24.06c0,1,.42,1.77,1.2,1.77s1.16-.72,1.16-1.78c0-.86-.33-1.75-1.16-1.75S112.87,9.78,112.87,10.65Z" style="fill:#fff"/></g></g></svg>